<?xml version="1.0" encoding="iso-8859-1"?>
<!-- Uploaded to: SVG Repo, www.svgrepo.com, Generator: SVG Repo Mixer Tools -->
<svg height="800px" width="800px" version="1.1" id="Layer_1" xmlns="http://www.w3.org/2000/svg" xmlns:xlink="http://www.w3.org/1999/xlink" 
	 viewBox="0 0 512 512" xml:space="preserve">
<path style="fill:#60BFE1;" d="M414.207,512H97.794c-10.686,0-19.349-8.663-19.349-19.349v-61.366
	c0-97.904,79.651-177.555,177.555-177.555s177.555,79.651,177.555,177.555v61.366C433.556,503.337,424.893,512,414.207,512z"/>
<path style="fill:#2E9ADA;" d="M256,253.73V512h158.206c10.686,0,19.349-8.663,19.349-19.349v-61.366
	C433.556,333.381,353.905,253.73,256,253.73z"/>
<g>
	<path style="fill:#FFEAB2;" d="M377.435,301.878c-68.198-64.035-174.303-64.381-242.868,0
		c2.973,2.973,104.769,104.769,107.753,107.753c3.778,3.778,8.73,5.667,13.681,5.667c4.952,0,9.904-1.888,13.681-5.667
		C272.664,406.648,374.015,305.297,377.435,301.878z"/>
	<path style="fill:#FFEAB2;" d="M256,238.468c-65.725,0-119.197-53.472-119.197-119.197S190.275,0.074,256,0.074
		S375.197,53.545,375.197,119.27S321.726,238.468,256,238.468z"/>
</g>
<path style="fill:#FFE08C;" d="M256,0.075v238.393c65.725,0,119.197-53.472,119.197-119.197C375.198,53.545,321.726,0.075,256,0.075
	z"/>
<path style="fill:#60BFE1;" d="M369.976,84.323C330.695-43.916,136.803-18.349,136.803,119.271c0,8.787,0.992,17.64,2.947,26.313
	c2.619,11.604,14.995,18.109,26.028,13.721c27.025-10.751,50.442-28.912,67.68-52.112c7.119,4.446,14.775,8.194,22.896,11.138
	c35.513,12.875,74.043,8.51,105.694-12.135C369.268,101.486,372.502,92.567,369.976,84.323z"/>
<path style="fill:#FFE08C;" d="M377.435,301.878C343.777,270.273,300.707,253.73,256,253.73v161.566
	c4.952,0,9.904-1.888,13.681-5.667L377.435,301.878z"/>
<path style="fill:#2E9ADA;" d="M369.976,84.323C353.956,32.025,306.274,0.13,256,0v118.197c0.119,0.044,0.235,0.09,0.353,0.134
	c35.513,12.875,74.043,8.51,105.694-12.135C369.268,101.486,372.502,92.567,369.976,84.323z"/>
</svg>